<svg xmlns="http://www.w3.org/2000/svg" viewBox="0 0 64 64" width="64" height="64">
  <!-- Background circle -->
  <circle cx="32" cy="32" r="30" fill="#1a2744" stroke="#c8a45e" stroke-width="2"/>
  
  <!-- Lady Justice figure -->
  <!-- Head -->
  <circle cx="32" cy="14" r="4" fill="#c8a45e"/>
  
  <!-- Blindfold -->
  <rect x="27.5" y="13" width="9" height="2" rx="1" fill="#1a2744"/>
  
  <!-- Body/Robe -->
  <path d="M32 18 L28 38 L24 48 L40 48 L36 38 Z" fill="#c8a45e" opacity="0.9"/>
  <path d="M32 18 L29 28 L35 28 Z" fill="#d4b06a"/>
  
  <!-- Left arm holding scales -->
  <line x1="32" y1="22" x2="16" y2="20" stroke="#c8a45e" stroke-width="1.8" stroke-linecap="round"/>
  
  <!-- Right arm holding scales -->
  <line x1="32" y1="22" x2="48" y2="20" stroke="#c8a45e" stroke-width="1.8" stroke-linecap="round"/>
  
  <!-- Left scale pan -->
  <line x1="16" y1="20" x2="12" y2="28" stroke="#c8a45e" stroke-width="1.2"/>
  <line x1="16" y1="20" x2="20" y2="28" stroke="#c8a45e" stroke-width="1.2"/>
  <path d="M10 28 Q16 32 22 28" fill="none" stroke="#c8a45e" stroke-width="1.5"/>
  
  <!-- Right scale pan -->
  <line x1="48" y1="20" x2="44" y2="28" stroke="#c8a45e" stroke-width="1.2"/>
  <line x1="48" y1="20" x2="52" y2="28" stroke="#c8a45e" stroke-width="1.2"/>
  <path d="M42 28 Q48 32 54 28" fill="none" stroke="#c8a45e" stroke-width="1.5"/>
  
  <!-- Sword (held vertically, slightly behind) -->
  <line x1="32" y1="8" x2="32" y2="52" stroke="#c8a45e" stroke-width="1.2" opacity="0.5"/>
  <line x1="29" y1="19" x2="35" y2="19" stroke="#c8a45e" stroke-width="1.5" opacity="0.5"/>
  
  <!-- Base/pedestal -->
  <rect x="26" y="48" width="12" height="3" rx="1" fill="#c8a45e"/>
  <rect x="24" y="51" width="16" height="2" rx="1" fill="#c8a45e" opacity="0.8"/>
</svg>
